<?xml version="1.0" standalone="no"?>
<!DOCTYPE svg PUBLIC "-//W3C//DTD SVG 20010904//EN"
 "http://www.w3.org/TR/2001/REC-SVG-20010904/DTD/svg10.dtd">
<svg version="1.0" xmlns="http://www.w3.org/2000/svg"
 width="117.000000pt" height="117.000000pt" viewBox="0 0 117.000000 117.000000"
 preserveAspectRatio="xMidYMid meet">
<metadata>
Created by potrace 1.14, written by Peter Selinger 2001-2017
</metadata>
<g transform="translate(0.000000,117.000000) scale(0.100000,-0.100000)"
fill="#000000" stroke="none">
<path d="M27 981 c65 -54 84 -73 153 -151 108 -124 213 -225 262 -254 24 -13
78 -34 120 -45 107 -27 159 -52 191 -90 55 -66 34 -148 -55 -214 -28 -20 -49
-37 -47 -37 33 0 270 113 349 166 220 147 217 285 -8 406 -107 58 -354 133
-567 172 -97 18 -210 37 -247 42 -24 3 -67 9 -97 15 -74 12 -80 11 -54 -10z"/>
<path d="M535 376 c-12 -8 -15 -19 -11 -33 8 -26 34 -37 52 -22 35 29 -4 82
-41 55z"/>
</g>
</svg>
